<?xml version="1.0" encoding="UTF-8"?>
<!DOCTYPE svg PUBLIC "-//W3C//DTD SVG 1.1//EN" "http://www.w3.org/Graphics/SVG/1.1/DTD/svg11.dtd">
<!-- Creator: CorelDRAW 2018 (64-Bit) -->
<svg xmlns="http://www.w3.org/2000/svg" xml:space="preserve" width="172.508mm" height="172.508mm" version="1.1" style="shape-rendering:geometricPrecision; text-rendering:geometricPrecision; image-rendering:optimizeQuality; fill-rule:evenodd; clip-rule:evenodd"
viewBox="0 0 16814.71 16814.71"
 xmlns:xlink="http://www.w3.org/1999/xlink">
 <defs>
  <style type="text/css">
   <![CDATA[
    .fil2 {fill:none}
    .fil1 {fill:#089B4A;fill-rule:nonzero}
    .fil0 {fill:#33CC00;fill-rule:nonzero}
   ]]>
  </style>
 </defs>
 <g id="Layer_x0020_1">
  <metadata id="CorelCorpID_0Corel-Layer"/>
  <path class="fil0" d="M9198.55 7056.76l-35.41 0 35.41 0z"/>
  <g id="_2278908289312">
   <path class="fil0" d="M4260.72 14166.48l-473.64 0c-75.98,0 -137.57,61.59 -137.57,137.57l0 91.13c0,75.98 61.59,137.57 137.57,137.57l434.73 0c75.98,0 137.56,61.59 137.56,137.57l0 301.85c0,75.98 -61.58,137.56 -137.56,137.56l-434.73 0c-75.98,0 -137.57,61.6 -137.57,137.57l0 519c0,75.97 -61.59,137.57 -137.57,137.57l-470.37 0c-75.97,0 -137.57,-61.6 -137.57,-137.57l0 -2039.24c0,-75.98 61.6,-137.57 137.57,-137.57l1219.15 0c75.98,0 137.57,61.59 137.57,137.57l0 301.84c0,75.98 -61.59,137.57 -137.57,137.57z"/>
   <path class="fil0" d="M5466.21 15323.68l502.62 0c59.91,0 108.49,48.57 108.49,108.49l0 363.23c0,59.92 -48.58,108.49 -108.49,108.49l-1248.15 0c-59.92,0 -108.49,-48.57 -108.49,-108.49l0 -2097.42c0,-59.91 48.57,-108.48 108.49,-108.48l528.56 0c59.91,0 108.49,48.57 108.49,108.48l0 1517.21c0,59.93 48.57,108.5 108.48,108.5z"/>
   <path class="fil0" d="M7056.19 15099.99c0,60.53 17.83,105.9 53.48,136.15 35.66,30.29 81.55,45.37 137.76,45.37 56.17,0 102.62,-15.08 139.39,-45.37 36.72,-30.25 55.11,-75.62 55.11,-136.15l0 -1402.02c0,-59.91 48.57,-108.48 108.49,-108.48l525.31 0c59.91,0 108.49,48.57 108.49,108.48l0 1463.6c0,129.66 -26.49,242.6 -79.42,338.75 -52.98,96.19 -123.18,175.6 -210.69,238.24 -87.53,62.69 -187.51,109.69 -299.83,140.99 -112.38,31.3 -228.03,47 -346.84,47 -121.03,0 -237.93,-15.7 -350.76,-47 -112.86,-31.3 -212.72,-78.3 -299.54,-140.99 -86.8,-62.65 -156.29,-142.05 -208.36,-238.24 -52.06,-96.16 -78.09,-209.1 -78.09,-338.75l0 -1463.6c0,-59.91 48.58,-108.48 108.5,-108.48l528.53 0c59.92,0 108.49,48.57 108.49,108.48l0 1402.02z"/>
   <path class="fil0" d="M9146.87 14250.76c0,45.36 21.08,82.12 63.23,110.17 42.14,28.14 116.14,50.82 222.02,68.1 248.48,36.75 433.25,121.57 554.28,254.42 121.01,132.91 181.52,292.33 181.52,478.11 0,101.61 -20,198.29 -59.95,290.13 -40.01,91.88 -100.48,172.91 -181.54,243.11 -81.02,70.21 -182.06,125.88 -303.07,166.94 -121.03,41.06 -261.48,61.55 -421.37,61.55 -86.46,0 -171.29,-8.67 -254.45,-25.91 -83.22,-17.27 -163.19,-39.95 -239.87,-68.09 -76.74,-28.05 -148.05,-60.45 -213.93,-97.26 -38.64,-21.51 -75.23,-43.4 -109.77,-65.68 -41.71,-26.88 -60.34,-77.92 -45.02,-125.12 24.38,-75.17 61.78,-190.5 90.29,-278.39 20.93,-64.54 95.12,-93.89 154.8,-61.61l34.51 18.67c51.86,28.14 104.25,52.98 157.22,74.57 52.91,21.63 105.84,39.48 158.82,53.5 52.93,14.07 104.24,21.06 153.96,21.06 84.28,0 149.11,-10.77 194.48,-32.4 45.4,-21.6 68.08,-56.19 68.08,-103.76 0,-43.18 -23.26,-79.4 -69.68,-108.6 -46.49,-29.13 -120.48,-52.35 -222.04,-69.67 -235.56,-36.72 -410.03,-120.99 -523.49,-252.84 -113.44,-131.76 -170.18,-291.7 -170.18,-479.7 0,-92.9 17.83,-184.21 53.48,-273.9 35.66,-89.64 88.04,-169.09 157.21,-238.25 69.14,-69.16 155.58,-125.3 259.32,-168.56 103.71,-43.22 222.53,-64.85 356.55,-64.85 190.13,0 359.23,18.38 507.28,55.13 112.47,27.94 212.8,64.6 300.97,109.99 46.98,24.18 69.56,78.78 53.82,129.23l-91.95 295.03c-18.88,60.56 -85.66,93.02 -144.03,68.2 -52.12,-22.16 -110.08,-42.54 -173.93,-61.15 -111.31,-32.4 -224.21,-48.62 -338.72,-48.62 -43.26,0 -80.54,12.49 -111.85,37.28 -31.34,24.87 -47,54.6 -47,89.16z"/>
   <path class="fil0" d="M11088.48 14250.76c0,45.36 21.07,82.12 63.22,110.17 42.14,28.14 116.13,50.82 222.01,68.1 248.49,36.75 433.25,121.57 554.29,254.42 121.01,132.91 181.52,292.33 181.52,478.11 0,101.61 -20,198.29 -59.96,290.13 -40,91.88 -100.48,172.91 -181.53,243.11 -81.03,70.21 -182.06,125.88 -303.07,166.94 -121.03,41.06 -261.48,61.55 -421.38,61.55 -86.45,0 -171.28,-8.67 -254.44,-25.91 -83.22,-17.27 -163.2,-39.95 -239.87,-68.09 -76.75,-28.05 -148.05,-60.45 -213.93,-97.26 -38.65,-21.51 -75.25,-43.4 -109.79,-65.68 -41.7,-26.88 -60.28,-78.09 -44.96,-125.29l90.1 -277.83c20.94,-64.54 95.26,-94.28 154.93,-62l34.51 18.67c51.86,28.14 104.24,52.98 157.21,74.57 52.91,21.63 105.84,39.48 158.82,53.5 52.94,14.07 104.24,21.06 153.97,21.06 84.28,0 149.1,-10.77 194.48,-32.4 45.39,-21.6 68.08,-56.19 68.08,-103.76 0,-43.18 -23.27,-79.4 -69.69,-108.6 -46.48,-29.13 -120.48,-52.35 -222.04,-69.67 -235.56,-36.72 -410.03,-120.99 -523.48,-252.84 -113.45,-131.76 -170.19,-291.7 -170.19,-479.7 0,-92.9 17.83,-184.21 53.48,-273.9 35.66,-89.64 88.04,-169.09 157.21,-238.25 69.14,-69.16 155.59,-125.3 259.32,-168.56 103.72,-43.22 222.53,-64.85 356.55,-64.85 190.13,0 359.24,18.38 507.29,55.13 112.46,27.94 212.79,64.6 300.97,109.99 46.98,24.18 69.55,78.78 53.82,129.23l-91.95 295.03c-18.88,60.56 -85.65,93.02 -144.03,68.2 -52.11,-22.16 -110.07,-42.54 -173.92,-61.15 -111.32,-32.4 -224.22,-48.62 -338.72,-48.62 -43.26,0 -80.54,12.49 -111.85,37.28 -31.35,24.87 -46.99,54.6 -46.99,89.16z"/>
   <path class="fil0" d="M13023.6 15099.99c0,60.53 17.83,105.9 53.48,136.15 35.66,30.29 81.55,45.37 137.76,45.37 56.16,0 102.62,-15.08 139.39,-45.37 36.71,-30.25 55.1,-75.62 55.1,-136.15l0 -1402.02c0,-59.91 48.58,-108.48 108.5,-108.48l525.3 0c59.93,0 108.5,48.57 108.5,108.48l0 1463.6c0,129.66 -26.49,242.6 -79.43,338.75 -52.98,96.19 -123.17,175.6 -210.68,238.24 -87.53,62.69 -187.51,109.69 -299.84,140.99 -112.37,31.3 -228.02,47 -346.83,47 -121.03,0 -237.94,-15.7 -350.77,-47 -112.85,-31.3 -212.72,-78.3 -299.53,-140.99 -86.8,-62.65 -156.29,-142.05 -208.37,-238.24 -52.05,-96.16 -78.08,-209.1 -78.08,-338.75l0 -1463.6c0,-59.91 48.58,-108.48 108.49,-108.48l528.54 0c59.91,0 108.49,48.57 108.49,108.48l0 1402.02z"/>
  </g>
  <g id="_2278908292000">
   <path class="fil0" d="M8784.82 6694.74l-35.4 0 35.4 0z"/>
   <path class="fil0" d="M8784.82 6694.74l-35.4 0 35.4 0z"/>
   <path class="fil0" d="M8784.82 6694.74l-35.4 0 35.4 0z"/>
  </g>
  <path class="fil0" d="M12260.99 828.73l-7601.83 0c-2012.28,0 -3658.68,1646.42 -3658.68,3658.69l0 3924.07c0,1365.8 758.93,2562.33 1875.47,3190.63l35.07 1473.05c1.96,82.09 89.47,133.56 162.15,95.36l2094.22 -1100.35 7093.61 0c2012.28,0 3658.68,-1646.41 3658.68,-3658.68l0 -3924.08c0,-2012.28 -1646.42,-3658.69 -3658.69,-3658.69zm905.04 7062.62l0 0c0,778.22 -630.88,1409.1 -1409.1,1409.1l-6566.29 0c-778.22,0 -1409.1,-630.88 -1409.1,-1409.1l0 -2832.98c0,-778.23 630.88,-1409.11 1409.1,-1409.11l6566.29 0c778.22,0 1409.1,630.88 1409.1,1409.11l0 2832.98z"/>
  <g id="_2278908293664">
   <path class="fil1" d="M8555.95 4289l-3131.18 0c-532.37,0 -963.95,425.92 -963.95,951.33 0,525.41 431.58,951.34 963.95,951.34l3131.18 0c532.37,0 963.95,-425.93 963.95,-951.34 0,-525.41 -431.58,-951.33 -963.95,-951.33z"/>
   <path class="fil1" d="M5999.74 6737.51c-5.57,0 -26.2,3.61 -26.74,29.22l-0.5 323.32c0,45.03 36.49,81.53 81.52,81.53l51.69 0c57.67,0 97.1,58.25 75.69,111.79l-386.8 966.99c-27.33,68.32 -124.04,68.32 -151.37,0l-386.8 -966.99c-21.41,-53.55 18.02,-111.79 75.69,-111.79l51.66 0c45.02,0 81.53,-36.49 81.53,-81.53l-0.11 -325.91c-0.4,-16.8 -11.78,-26.82 -28.44,-26.69 -498.43,0 -912.18,370.1 -955.35,866.67 -49.02,563.89 394.21,1036.75 947.87,1036.75l584.86 0c531.47,0 961.18,-435.7 951.42,-969.41 -9.59,-523.86 -441.88,-933.97 -965.82,-933.97z"/>
   <path class="fil1" d="M11507.88 6749.27l-3131.19 0c-432.05,0 -796.8,280.89 -919.23,667.48 -4.66,14.71 6.83,29.97 22.26,29.97l360.27 0c45.02,0 81.53,-36.49 81.53,-81.52l0 -51.68c0,-57.67 58.24,-97.11 111.79,-75.7l966.98 386.81c68.33,27.32 68.33,124.03 0,151.37l-966.98 386.79c-53.55,21.42 -111.79,-18.01 -111.79,-75.68l0 -51.66c0,-45.03 -36.5,-81.54 -81.54,-81.54l-351.73 0c-19.73,0 -34.43,19.49 -28.32,38.25 124.8,382.61 487.57,659.77 916.75,659.77l3131.19 0c532.37,0 963.94,-425.92 963.94,-951.33 0,-525.41 -431.57,-951.33 -963.94,-951.33z"/>
   <path class="fil1" d="M11494.42 4314.87l-553.28 0c-523.96,0 -973.4,409.91 -982.99,933.77 -9.77,533.7 419.95,969.41 951.42,969.41l37.08 -0.39c11.68,-1 20.34,-0.87 21.5,-21.83l0.59 -310.77c0,-45.02 -36.49,-81.52 -81.52,-81.52l-51.68 0c-57.67,0 -97.1,-58.25 -75.7,-111.79l386.81 -967c27.32,-68.32 124.04,-68.32 151.37,0l386.79 967c21.42,53.54 -18.01,111.79 -75.68,111.79l-51.67 0c-45.02,0 -81.53,36.49 -81.53,81.52l0 319.2c0,7.62 6.19,13.79 13.8,13.79 433.63,0 822.76,-288.71 926.47,-709.76 155.21,-630.14 -317.5,-1193.42 -921.8,-1193.42z"/>
  </g>
  <rect class="fil2" width="16814.71" height="16814.71"/>
 </g>
</svg>
