<?xml version="1.0" encoding="UTF-8"?>
<!DOCTYPE svg PUBLIC "-//W3C//DTD SVG 1.0//EN" "http://www.w3.org/TR/2001/REC-SVG-20010904/DTD/svg10.dtd">
<!-- Creator: CorelDRAW 2018 (64-Bit) -->
<svg xmlns="http://www.w3.org/2000/svg" xml:space="preserve" width="470px" height="512px" version="1.0" shape-rendering="geometricPrecision" text-rendering="geometricPrecision" image-rendering="optimizeQuality" fill-rule="evenodd" clip-rule="evenodd"
viewBox="0 0 232.85 253.86"
 xmlns:xlink="http://www.w3.org/1999/xlink">
 <g id="Layer_x0020_1">
  <metadata id="CorelCorpID_0Corel-Layer"/>
  <rect fill="#FEFEFE" stroke="#B2B3B3" stroke-width="0.54" stroke-miterlimit="22.9256" x="0.27" y="0.27" width="232.31" height="253.33" rx="7.95" ry="7.98"/>
  <ellipse fill="#2878BC" transform="matrix(0.472166 0.524295 -0.480485 0.592009 28.7501 81.4691)" rx="7.41" ry="11.4"/>
  <ellipse fill="#2878BC" transform="matrix(0.251227 0.393548 -0.583182 0.320466 56.7278 41.9975)" rx="7.41" ry="11.4"/>
  <ellipse fill="#2878BC" transform="matrix(-0.15356 0.440925 -0.612692 -0.25963 166.97 35.6163)" rx="7.41" ry="11.4"/>
  <g>
   <path fill="#B2B3B3" fill-rule="nonzero" d="M84.93 27.99c-0.73,-1.09 -0.15,-2.42 1.3,-2.97 1.45,-0.55 3.22,-0.11 3.95,0.98l-5.25 1.99zm10.86 16.14l-10.86 -16.14 5.25 -1.99 10.86 16.14 -5.25 1.99zm5.25 -1.99c0.74,1.08 0.15,2.41 -1.3,2.96 -1.45,0.55 -3.22,0.11 -3.95,-0.97l5.25 -1.99z"/>
  </g>
  <path fill="#2878BC" d="M128.45 22.26c0.12,1.68 -3.03,2.44 -6.72,2.46 -3.68,0.01 -7.87,-1.17 -7.98,-2.85 -0.12,-1.67 3.74,-2.23 7.43,-2.25 3.68,-0.02 7.15,0.97 7.27,2.64z"/>
  <ellipse fill="#0E9FD3" transform="matrix(0.195049 0.502557 -0.839915 0.208362 87.5566 26.9921)" rx="7.41" ry="11.4"/>
  <g>
   <path fill="#B2B3B3" d="M115.97 46.22c48.53,13.78 66.6,35.01 73.88,57.45 7.28,22.43 -27.58,23.66 -60.54,15.79 -32.96,-7.87 -22.65,-0.11 -65.53,-27.51 -42.88,-27.4 3.66,-59.51 52.19,-45.73zm47.99 28.38c-10.89,-9.32 -26.78,-17.64 -50.06,-24.26 -18.97,-5.38 -37.45,-3.11 -49.2,3.2 -4.24,2.28 -7.54,5.06 -9.59,8.15 -1.97,2.99 -2.79,6.31 -2.14,9.79 1,5.41 5.51,11.3 14.63,17.12 31.91,20.39 33.29,20.65 46,23.01 4.2,0.77 9.52,1.76 17.48,3.66 12.97,3.1 26.17,4.71 36.61,4.03 5.45,-0.36 9.95,-1.33 12.97,-3.02 2.56,-1.44 4.12,-3.56 4.28,-6.47 0.08,-1.49 -0.17,-3.19 -0.79,-5.11 -3.44,-10.59 -9.4,-20.88 -20.19,-30.1z"/>
  </g>
  <g>
   <path fill="#B2B3B3" d="M67.25 99.1c13.11,-44.37 28.52,-62.69 63.65,-69.63 35.14,-6.95 28.38,35.38 20.78,58.05 -7.61,22.68 -16.77,40.51 -43.59,60.01 -26.82,19.51 -53.95,-4.07 -40.84,-48.43zm26.31 -44.43c-9.21,10.25 -15.93,25.13 -22.2,46.35 -3.84,12.99 -3.88,23.78 -1.36,31.76 1.58,5.02 4.19,8.96 7.49,11.64 3.38,2.73 7.51,4.18 12.04,4.15 5.16,-0.03 10.85,-2 16.58,-6.17 12.91,-9.39 21.51,-18.29 27.75,-27.5 6.2,-9.14 10.17,-18.76 13.79,-29.57 3.72,-11.09 7.26,-27.1 5.03,-38.38 -0.55,-2.79 -1.48,-5.25 -2.88,-7.19 -1.4,-1.94 -3.34,-3.44 -5.92,-4.3 -3.19,-1.07 -7.3,-1.23 -12.53,-0.2 -16.69,3.3 -28.61,9.2 -37.79,19.41z"/>
  </g>
  <g>
   <path fill="#B2B3B3" fill-rule="nonzero" d="M66.73 93.2c1.29,-0.74 3.14,-0.54 4.12,0.43 0.98,0.97 0.72,2.36 -0.57,3.09l-3.55 -3.52zm-38.52 21.84l38.52 -21.84 3.55 3.52 -38.52 21.85 -3.55 -3.53zm3.55 3.53c-1.3,0.73 -3.14,0.54 -4.12,-0.43 -0.99,-0.98 -0.73,-2.36 0.57,-3.1l3.55 3.53z"/>
  </g>
  <g>
   <path fill="#B2B3B3" fill-rule="nonzero" d="M189.86 57.48c1.6,-0.19 3.11,0.63 3.36,1.83 0.25,1.21 -0.85,2.34 -2.45,2.53l-0.91 -4.36zm-33.12 3.89l33.12 -3.89 0.91 4.36 -33.12 3.89 -0.91 -4.36zm0.91 4.36c-1.6,0.19 -3.11,-0.64 -3.36,-1.84 -0.25,-1.2 0.85,-2.33 2.45,-2.52l0.91 4.36z"/>
  </g>
  <g>
   <path fill="#B2B3B3" fill-rule="nonzero" d="M133.74 124.86c-0.43,-1.17 0.49,-2.39 2.06,-2.71 1.57,-0.32 3.19,0.37 3.62,1.54l-5.68 1.17zm16.8 45.9l-16.8 -45.9 5.68 -1.17 16.8 45.9 -5.68 1.17zm5.68 -1.17c0.43,1.17 -0.49,2.39 -2.06,2.71 -1.57,0.32 -3.19,-0.37 -3.62,-1.54l5.68 -1.17z"/>
  </g>
  <ellipse fill="#0E9FD3" transform="matrix(0.278537 0.37878 -0.68928 0.530043 54.0955 61.4025)" rx="18.32" ry="15.9"/>
  <ellipse fill="#0E9FD3" transform="matrix(0.226987 0.613239 -1.09965 0.298955 99.9229 47.6407)" rx="18.32" ry="15.9"/>
  <ellipse fill="#0E9FD3" transform="matrix(0.675075 0.283509 -0.237754 0.617306 156.225 66.3438)" rx="26.7" ry="21.44"/>
  <ellipse fill="#6F4D98" cx="116.27" cy="77.77" rx="21.26" ry="17.81"/>
  <ellipse fill="#0E9FD3" cx="132.91" cy="120.51" rx="22.11" ry="21.6"/>
  <ellipse fill="#0E9FD3" transform="matrix(0.573087 0.298491 -0.408392 0.640744 71.2828 95.7515)" rx="28.54" ry="26.98"/>
  <ellipse fill="#0E9FD3" transform="matrix(0.717176 0.143147 -0.143147 0.717176 139.248 33.7935)" rx="18.46" ry="8.38"/>
  <ellipse fill="#0E9FD3" transform="matrix(0.416861 -0.289219 0.651372 0.662287 190.313 59.6568)" rx="11.93" ry="11.08"/>
  <ellipse fill="#0E9FD3" transform="matrix(0.788102 -0.0170177 0.138724 0.704587 183.865 108.849)" rx="17.32" ry="22.44"/>
  <ellipse fill="#0E9FD3" transform="matrix(0.736754 0.207031 -0.204765 0.660446 29.9833 116.805)" rx="11.5" ry="17.8"/>
  <ellipse fill="#0E9FD3" cx="83.15" cy="147.59" rx="17.34" ry="17.71"/>
  <ellipse fill="#2878BC" cx="46.66" cy="154.21" rx="8.98" ry="10.74"/>
  <ellipse fill="#2878BC" cx="106.44" cy="181.81" rx="11.07" ry="11.26"/>
  <ellipse fill="#0E9FD3" transform="matrix(0.754537 0.129474 -0.133917 0.710168 153.382 170.173)" rx="17.61" ry="19.49"/>
  <ellipse fill="#2878BC" cx="191.25" cy="145.61" rx="8.84" ry="10.5"/>
  <ellipse fill="#2878BC" transform="matrix(0.627013 -0.410466 0.410466 0.627013 205.51 92.5958)" rx="7.66" ry="12.03"/>
  <path fill="#2B2A29" fill-rule="nonzero" d="M23.11 238.24c-0.88,0.71 -1.91,1.06 -3.08,1.06 -1.2,0 -2.19,-0.34 -2.96,-1.01 -0.78,-0.68 -1.17,-1.6 -1.17,-2.76 0,-2.68 2.02,-4.1 6.06,-4.25 -0.2,-1 -0.63,-1.5 -1.29,-1.5 -0.96,0 -1.95,0.31 -2.95,0.92l-0.91 -2.17c1.12,-0.85 2.34,-1.28 3.65,-1.28 3.15,0 4.73,1.78 4.73,5.35l0 3.43c0.58,0.39 1.05,0.59 1.4,0.59 1.6,0 2.39,-1.41 2.39,-4.2 0,-2.43 -0.67,-4.34 -2.03,-5.73 -1.35,-1.39 -3.23,-2.09 -5.64,-2.09 -2.46,0 -4.43,0.85 -5.93,2.56 -1.49,1.7 -2.24,3.88 -2.24,6.53 0,2.62 0.74,4.71 2.21,6.29 1.48,1.58 3.46,2.37 5.96,2.37 1.31,0 2.38,-0.16 3.18,-0.48 0.81,-0.32 1.62,-0.86 2.42,-1.62 0.01,0.01 0.02,0.15 0.02,0.43 0,0.29 -0.01,0.71 -0.02,1.26l0 1.62c-1.76,1.05 -3.63,1.57 -5.61,1.57 -3.4,0 -6.13,-1.05 -8.19,-3.17 -2.05,-2.1 -3.08,-4.86 -3.08,-8.27 0,-3.46 1.04,-6.3 3.13,-8.53 2.08,-2.23 4.8,-3.34 8.15,-3.34 3.44,0 6.1,0.93 7.97,2.78 1.87,1.85 2.81,4.48 2.81,7.88 0,1.85 -0.5,3.43 -1.49,4.73 -0.99,1.31 -2.31,1.96 -3.97,1.96 -1.51,0 -2.69,-0.31 -3.52,-0.93zm-1.09 -4.8l-0.32 0c-1.67,0 -2.51,0.67 -2.51,2 0,0.41 0.15,0.76 0.44,1.03 0.3,0.27 0.67,0.41 1.13,0.41 0.48,0 0.9,-0.16 1.26,-0.5l0 -2.94z"/>
  <path id="1" fill="#2B2A29" fill-rule="nonzero" d="M53.7 243l0 -10.73c0,-2.25 -0.97,-3.38 -2.91,-3.38 -0.57,0 -1.12,0.18 -1.65,0.53 -0.54,0.35 -0.91,0.76 -1.12,1.22l0 12.36 -3.83 0 0 -11.36c0,-0.84 -0.25,-1.51 -0.75,-2.01 -0.5,-0.49 -1.21,-0.74 -2.12,-0.74 -0.48,0 -1,0.19 -1.57,0.56 -0.57,0.38 -0.98,0.79 -1.24,1.24l0 12.31 -3.83 0 0 -17.12 2.64 0 0.78 1.51c1.07,-1.23 2.44,-1.84 4.12,-1.84 2.18,0 3.82,0.62 4.92,1.87 0.49,-0.57 1.15,-1.02 2.01,-1.36 0.86,-0.34 1.72,-0.51 2.58,-0.51 1.83,0 3.25,0.55 4.27,1.64 1.02,1.1 1.52,2.6 1.52,4.51l0 11.3 -3.82 0z"/>
  <path id="2" fill="#2B2A29" fill-rule="nonzero" d="M63.16 219.23c0.61,0 1.14,0.23 1.57,0.69 0.43,0.45 0.65,0.99 0.65,1.64 0,0.64 -0.22,1.19 -0.65,1.64 -0.43,0.45 -0.96,0.68 -1.57,0.68 -0.61,0 -1.14,-0.23 -1.58,-0.68 -0.43,-0.45 -0.65,-1 -0.65,-1.64 0,-0.65 0.22,-1.19 0.65,-1.64 0.44,-0.46 0.97,-0.69 1.58,-0.69zm-1.98 23.77l0 -13.85 -2.1 0 0 -3.27 5.99 0 0 17.12 -3.89 0z"/>
  <path id="3" fill="#2B2A29" fill-rule="nonzero" d="M68.41 219.51l3.83 -0.96 0 19.23c0,2.11 0.61,3.37 1.82,3.78 -0.59,1.18 -1.6,1.77 -3.04,1.77 -1.74,0 -2.61,-1.26 -2.61,-3.78l0 -20.04z"/>
  <path id="4" fill="#2B2A29" fill-rule="nonzero" d="M76.2 219.51l3.83 -0.96 0 19.23c0,2.11 0.61,3.37 1.82,3.78 -0.59,1.18 -1.61,1.77 -3.04,1.77 -1.74,0 -2.61,-1.26 -2.61,-3.78l0 -20.04z"/>
  <path id="5" fill="#2B2A29" fill-rule="nonzero" d="M98.91 235.67l-11.72 0c0.07,1.36 0.52,2.43 1.35,3.18 0.83,0.76 1.94,1.14 3.34,1.14 1.75,0 3.08,-0.47 3.99,-1.41l1.49 3.05c-1.35,1.13 -3.36,1.7 -6.04,1.7 -2.5,0 -4.47,-0.77 -5.93,-2.3 -1.46,-1.53 -2.18,-3.67 -2.18,-6.4 0,-2.71 0.8,-4.89 2.39,-6.57 1.6,-1.67 3.52,-2.51 5.75,-2.51 2.38,0 4.29,0.74 5.73,2.23 1.44,1.48 2.16,3.37 2.16,5.66 0,0.49 -0.11,1.23 -0.33,2.23zm-11.56 -3.01l8.03 0c-0.27,-2.51 -1.59,-3.77 -3.97,-3.77 -2.18,0 -3.53,1.26 -4.06,3.77z"/>
  <path id="6" fill="#2B2A29" fill-rule="nonzero" d="M103.82 218.91c0.61,0 1.14,0.23 1.57,0.68 0.43,0.45 0.65,1 0.65,1.64 0,0.64 -0.22,1.19 -0.65,1.64 -0.43,0.46 -0.96,0.69 -1.57,0.69 -0.62,0 -1.14,-0.23 -1.58,-0.69 -0.43,-0.45 -0.65,-1 -0.65,-1.64 0,-0.64 0.22,-1.19 0.65,-1.64 0.44,-0.45 0.96,-0.68 1.58,-0.68zm-1.98 23.76l0 -13.84 -2.1 0 0 -3.28 5.99 0 0 17.12 -3.89 0z"/>
  <path id="7" fill="#2B2A29" fill-rule="nonzero" d="M107.72 241.58l1.36 -3.2c1.15,0.97 2.44,1.45 3.88,1.45 1.49,0 2.23,-0.56 2.23,-1.67 0,-0.65 -0.22,-1.19 -0.67,-1.6 -0.45,-0.42 -1.32,-0.91 -2.62,-1.48 -2.83,-1.22 -4.24,-2.94 -4.24,-5.15 0,-1.49 0.54,-2.64 1.62,-3.47 1.09,-0.82 2.47,-1.24 4.15,-1.24 1.7,0 3.3,0.4 4.8,1.2l-1.09 3.09c-0.84,-0.74 -2,-1.11 -3.49,-1.11 -1.33,0 -2,0.56 -2,1.66 0,0.45 0.22,0.84 0.65,1.19 0.44,0.35 1.38,0.83 2.82,1.42 1.44,0.59 2.48,1.31 3.11,2.15 0.63,0.85 0.94,1.87 0.94,3.06 0,1.59 -0.56,2.84 -1.69,3.75 -1.12,0.91 -2.65,1.37 -4.6,1.37 -1.09,0 -1.97,-0.09 -2.62,-0.28 -0.66,-0.19 -1.51,-0.57 -2.54,-1.14z"/>
  <path id="8" fill="#2B2A29" fill-rule="nonzero" d="M120.33 234.07c0,-2.61 0.73,-4.74 2.17,-6.38 1.44,-1.64 3.35,-2.47 5.72,-2.47 2.49,0 4.42,0.8 5.8,2.37 1.37,1.58 2.06,3.74 2.06,6.48 0,2.73 -0.7,4.9 -2.1,6.51 -1.41,1.61 -3.33,2.42 -5.76,2.42 -2.5,0 -4.43,-0.81 -5.81,-2.44 -1.39,-1.62 -2.08,-3.79 -2.08,-6.49zm3.99 0c0,3.77 1.3,5.66 3.9,5.66 1.19,0 2.13,-0.49 2.83,-1.47 0.7,-0.98 1.05,-2.38 1.05,-4.19 0,-3.71 -1.29,-5.57 -3.88,-5.57 -1.2,0 -2.15,0.49 -2.85,1.47 -0.7,0.98 -1.05,2.35 -1.05,4.1z"/>
  <path id="9" fill="#2B2A29" fill-rule="nonzero" d="M137.72 218.85l3.83 -0.96 0 19.24c0,2.11 0.61,3.36 1.82,3.77 -0.59,1.18 -1.61,1.77 -3.04,1.77 -1.74,0 -2.61,-1.26 -2.61,-3.77l0 -20.05z"/>
  <path id="10" fill="#2B2A29" fill-rule="nonzero" d="M159.18 235.01l-11.73 0c0.08,1.37 0.53,2.43 1.35,3.19 0.83,0.76 1.94,1.13 3.34,1.13 1.76,0 3.08,-0.46 3.99,-1.4l1.49 3.04c-1.35,1.14 -3.36,1.7 -6.03,1.7 -2.5,0 -4.48,-0.76 -5.94,-2.29 -1.45,-1.53 -2.18,-3.67 -2.18,-6.41 0,-2.7 0.8,-4.89 2.4,-6.56 1.6,-1.68 3.51,-2.51 5.75,-2.51 2.38,0 4.28,0.74 5.72,2.22 1.44,1.49 2.16,3.38 2.16,5.67 0,0.49 -0.11,1.23 -0.32,2.22zm-11.57 -3.01l8.03 0c-0.26,-2.51 -1.59,-3.76 -3.97,-3.76 -2.18,0 -3.53,1.25 -4.06,3.76z"/>
  <path id="11" fill="#2B2A29" fill-rule="nonzero" d="M179.62 226.57l-1.64 2.98c-0.89,-0.88 -2.1,-1.31 -3.61,-1.31 -1.45,0 -2.59,0.5 -3.43,1.51 -0.84,1.01 -1.26,2.4 -1.26,4.19 0,3.59 1.63,5.39 4.91,5.39 1.42,0 2.67,-0.49 3.75,-1.47l1.41 3.14c-1.12,0.73 -2.09,1.19 -2.92,1.38 -0.83,0.2 -1.81,0.29 -2.94,0.29 -2.54,0 -4.54,-0.77 -6,-2.31 -1.46,-1.54 -2.2,-3.68 -2.2,-6.42 0,-2.7 0.8,-4.89 2.41,-6.55 1.6,-1.66 3.78,-2.49 6.55,-2.49 1.91,0 3.57,0.55 4.97,1.67z"/>
  <path id="12" fill="#2B2A29" fill-rule="nonzero" d="M181.22 233.75c0,-2.62 0.72,-4.74 2.16,-6.39 1.45,-1.64 3.36,-2.46 5.72,-2.46 2.49,0 4.42,0.79 5.8,2.37 1.38,1.57 2.07,3.73 2.07,6.48 0,2.73 -0.7,4.9 -2.1,6.51 -1.41,1.61 -3.33,2.41 -5.77,2.41 -2.49,0 -4.42,-0.81 -5.8,-2.44 -1.39,-1.62 -2.08,-3.79 -2.08,-6.48zm3.98 0c0,3.77 1.31,5.65 3.9,5.65 1.2,0 2.14,-0.49 2.84,-1.47 0.69,-0.98 1.04,-2.38 1.04,-4.18 0,-3.72 -1.29,-5.58 -3.88,-5.58 -1.19,0 -2.14,0.49 -2.84,1.47 -0.71,0.98 -1.06,2.35 -1.06,4.11z"/>
  <path id="13" fill="#2B2A29" fill-rule="nonzero" d="M218.53 242.35l0 -10.74c0,-2.25 -0.97,-3.37 -2.9,-3.37 -0.57,0 -1.13,0.17 -1.66,0.53 -0.53,0.34 -0.91,0.75 -1.12,1.21l0 12.37 -3.83 0 0 -11.36c0,-0.84 -0.25,-1.51 -0.75,-2.01 -0.5,-0.5 -1.21,-0.74 -2.12,-0.74 -0.48,0 -1,0.18 -1.57,0.56 -0.57,0.38 -0.98,0.78 -1.24,1.24l0 12.31 -3.82 0 0 -17.13 2.63 0 0.79 1.51c1.06,-1.22 2.43,-1.83 4.12,-1.83 2.18,0 3.81,0.62 4.92,1.86 0.48,-0.56 1.15,-1.02 2,-1.36 0.87,-0.33 1.72,-0.5 2.58,-0.5 1.83,0 3.25,0.54 4.27,1.63 1.02,1.1 1.52,2.6 1.52,4.51l0 11.31 -3.82 0z"/>
  <path id="14" fill="#6F4D98" fill-rule="nonzero" d="M159.19 240.24c0,-0.8 0.26,-1.47 0.8,-2.03 0.54,-0.56 1.19,-0.84 1.96,-0.84 0.76,0 1.41,0.28 1.95,0.84 0.54,0.56 0.81,1.23 0.81,2.03 0,0.8 -0.27,1.48 -0.81,2.05 -0.54,0.56 -1.19,0.84 -1.95,0.84 -0.77,0 -1.42,-0.28 -1.96,-0.84 -0.54,-0.57 -0.8,-1.25 -0.8,-2.05z"/>
 </g>
</svg>
