<?xml version="1.0" encoding="UTF-8"?>
<!DOCTYPE svg PUBLIC "-//W3C//DTD SVG 1.0//EN" "http://www.w3.org/TR/2001/REC-SVG-20010904/DTD/svg10.dtd">
<!-- Creator: CorelDRAW 2018 (64-Bit) -->
<svg xmlns="http://www.w3.org/2000/svg" xml:space="preserve" width="2030px" height="1360px" version="1.0" shape-rendering="geometricPrecision" text-rendering="geometricPrecision" image-rendering="optimizeQuality" fill-rule="evenodd" clip-rule="evenodd"
viewBox="0 0 2330.98 1561.45"
 xmlns:xlink="http://www.w3.org/1999/xlink">
 <defs>
   <linearGradient id="id0" gradientUnits="userSpaceOnUse" x1="1047.81" y1="318.57" x2="1311.72" y2="30.21">
    <stop offset="0" stop-opacity="1" stop-color="#E31E24"/>
    <stop offset="0.380392" stop-opacity="1" stop-color="#F08E91"/>
    <stop offset="1" stop-opacity="1" stop-color="#FEFEFE"/>
   </linearGradient>
   <radialGradient id="id1" gradientUnits="userSpaceOnUse" gradientTransform="matrix(-2.21645 -2.24445 1.74892 -2.84445 1523 2878)" cx="668.39" cy="358.46" r="82.67" fx="668.39" fy="358.46">
    <stop offset="0" stop-opacity="1" stop-color="#FEFEFE"/>
    <stop offset="0.180392" stop-opacity="1" stop-color="#FEFEFE"/>
    <stop offset="0.65098" stop-opacity="1" stop-color="#F0EC90"/>
    <stop offset="1" stop-opacity="1" stop-color="#DDBF19"/>
   </radialGradient>
   <radialGradient id="id2" gradientUnits="userSpaceOnUse" gradientTransform="matrix(-2.21645 -2.24445 1.74892 -2.84445 1541 4250)" cx="819.78" cy="626.83" r="82.67" fx="819.78" fy="626.83">
    <stop offset="0" stop-opacity="1" stop-color="#FEFEFE"/>
    <stop offset="0.180392" stop-opacity="1" stop-color="#FEFEFE"/>
    <stop offset="0.65098" stop-opacity="1" stop-color="#F0EC90"/>
    <stop offset="1" stop-opacity="1" stop-color="#DDBF19"/>
   </radialGradient>
   <radialGradient id="id3" gradientUnits="userSpaceOnUse" gradientTransform="matrix(-2.21645 -2.24445 1.74892 -2.84445 2490 3564)" cx="970.15" cy="360.56" r="82.67" fx="970.15" fy="360.56">
    <stop offset="0" stop-opacity="1" stop-color="#FEFEFE"/>
    <stop offset="0.180392" stop-opacity="1" stop-color="#FEFEFE"/>
    <stop offset="0.65098" stop-opacity="1" stop-color="#F0EC90"/>
    <stop offset="1" stop-opacity="1" stop-color="#DDBF19"/>
   </radialGradient>
   <radialGradient id="id4" gradientUnits="userSpaceOnUse" gradientTransform="matrix(-2.21645 -2.24445 1.74892 -2.84445 2507 4935)" cx="1121.55" cy="628.94" r="82.67" fx="1121.55" fy="628.94">
    <stop offset="0" stop-opacity="1" stop-color="#FEFEFE"/>
    <stop offset="0.180392" stop-opacity="1" stop-color="#FEFEFE"/>
    <stop offset="0.65098" stop-opacity="1" stop-color="#F0EC90"/>
    <stop offset="1" stop-opacity="1" stop-color="#DDBF19"/>
   </radialGradient>
   <radialGradient id="id5" gradientUnits="userSpaceOnUse" gradientTransform="matrix(-2.21645 -2.24445 1.74892 -2.84445 3502 4296)" cx="1287.58" cy="365.8" r="82.67" fx="1287.58" fy="365.8">
    <stop offset="0" stop-opacity="1" stop-color="#FEFEFE"/>
    <stop offset="0.180392" stop-opacity="1" stop-color="#FEFEFE"/>
    <stop offset="0.65098" stop-opacity="1" stop-color="#F0EC90"/>
    <stop offset="1" stop-opacity="1" stop-color="#DDBF19"/>
   </radialGradient>
   <radialGradient id="id6" gradientUnits="userSpaceOnUse" gradientTransform="matrix(-2.21645 -2.24445 1.74892 -2.84445 1569 5608)" cx="972.21" cy="891.04" r="82.67" fx="972.21" fy="891.04">
    <stop offset="0" stop-opacity="1" stop-color="#FEFEFE"/>
    <stop offset="0.180392" stop-opacity="1" stop-color="#FEFEFE"/>
    <stop offset="0.65098" stop-opacity="1" stop-color="#F0EC90"/>
    <stop offset="1" stop-opacity="1" stop-color="#DDBF19"/>
   </radialGradient>
 </defs>
 <g id="Layer_x0020_1">
  <metadata id="CorelCorpID_0Corel-Layer"/>
  <ellipse fill="#FCF8D5" stroke="#FFED00" stroke-width="135.64" stroke-miterlimit="22.9256" cx="1165.49" cy="886.03" rx="1097.67" ry="607.6"/>
  <path fill="url(#id0)" d="M1176.65 123.33c-15.39,-51.83 146.69,-155.82 203.09,-82.66 91.75,119.03 -29.03,258.65 -197.56,292.69 -171.12,-29.35 -295,-170.46 -202.4,-290.59 56.4,-73.16 213.28,25.64 196.87,80.56z"/>
  <g>
   <path fill="#2B2A29" fill-rule="nonzero" d="M674.48 927.49l-79.44 92.86 -198.46 82.32 80.49 -93.29 -125.14 -14.33 198.46 -82.33 124.09 14.77zm1314.53 -530.6l-1500.76 622.54 -10.39 -25.06 1500.75 -622.54 10.4 25.06zm82.96 -49.1l-131.31 134.69 0.3 -5.14 0.16 -5.08 0.03 -5.02 -0.1 -4.97 -0.24 -4.92 -0.37 -4.86 -0.51 -4.8 -0.63 -4.75 -0.77 -4.7 -0.91 -4.64 -1.04 -4.58 -1.17 -4.52 -1.31 -4.48 -1.44 -4.41 -1.57 -4.36 -1.71 -4.31 -1.84 -4.25 -1.98 -4.19 -2.11 -4.14 -2.24 -4.09 -2.37 -4.02 -2.51 -3.98 -2.65 -3.91 -2.77 -3.87 -2.92 -3.8 -3.04 -3.75 -3.18 -3.7 -3.31 -3.64 -3.45 -3.58 -3.57 -3.53 -3.72 -3.48 -3.84 -3.42 0 0 188.09 2.2z"/>
  </g>
  <circle fill="url(#id1)" cx="867.94" cy="549.46" r="142.53"/>
  <circle fill="url(#id2)" cx="1019.33" cy="817.83" r="142.53"/>
  <circle fill="url(#id3)" cx="1169.7" cy="551.56" r="142.53"/>
  <circle fill="url(#id4)" cx="1321.1" cy="819.93" r="142.53"/>
  <circle fill="url(#id5)" cx="1487.13" cy="556.79" r="142.53"/>
  <circle fill="url(#id6)" cx="1171.76" cy="1082.04" r="142.53"/>
  <g>
   <g id="_2129534766544">
    <path fill="none" stroke="#2B2A29" stroke-width="27.13" stroke-miterlimit="22.9256" d="M871.55 396.5c-82.91,0 -150.12,66.9 -150.12,149.42 0,82.52 67.21,149.42 150.12,149.42 82.9,0 150.11,-66.9 149.05,-148.32 -1.06,-81.42 66.15,-148.32 149.05,-148.32 82.91,0 150.12,66.9 150.12,149.43 0,82.52 -67.21,149.42 -150.12,149.42"/>
    <path fill="none" stroke="#2B2A29" stroke-width="27.13" stroke-miterlimit="22.9256" d="M1022.94 674.27c-82.9,0 -150.11,66.9 -150.11,149.42 0,82.52 67.21,149.42 150.11,149.42 82.91,0 150.12,-66.9 149.06,-148.31 -1.06,-81.42 66.14,-148.32 149.05,-148.32 82.9,0 150.11,66.9 150.11,149.42 0,82.52 -67.21,149.42 -150.11,149.42"/>
    <path fill="none" stroke="#2B2A29" stroke-width="27.13" stroke-miterlimit="22.9256" d="M1171.21 936.38c-82.91,0 -150.12,66.9 -150.12,149.42 0,82.52 67.21,149.42 150.12,149.42 82.9,0 150.11,-66.9 149.05,-148.31m23.37 -548.07c-1.06,-81.42 66.15,-148.33 149.06,-148.33 82.9,0 150.11,66.91 150.11,149.43 0,82.52 -67.21,152.55 -150.11,152.55"/>
   </g>
   <path fill="none" stroke="#2B2A29" stroke-width="27.13" stroke-miterlimit="22.9256" d="M1191.17 161.88c-1.06,-81.41 66.15,-148.31 149.05,-148.31 147.79,0 106.68,311.37 -216.15,311.37"/>
  </g>
  <path fill="#FCF8D5" fill-rule="nonzero" d="M402.16 1277.54l81.28 -171.28 71.75 34.06c40.77,19.34 53.19,45.85 37.23,79.48 -16.13,33.98 -46.84,40.22 -92.19,18.7l-16.7 -7.92 -33.15 69.84 -48.22 -22.88zm88.92 -62.88l10.87 5.15c17.58,8.34 32.05,0.53 43.4,-23.39 10.66,-22.47 7.2,-37.85 -10.38,-46.19l-10.86 -5.16 -33.03 69.59zm190.42 171.38c-12.95,0.56 -24.84,-1.08 -35.62,-4.88 -15.95,-5.63 -23.96,-14.24 -24.09,-25.79 -11.48,7.86 -24.44,9.26 -38.95,4.14 -27.08,-9.56 -36.09,-27.25 -26.98,-53.07 6.92,-19.61 24.18,-29.04 51.71,-28.22 25.32,0.7 39.78,-4.15 43.41,-14.42 4.78,-13.54 0.64,-22.58 -12.45,-27.2 -15.08,-5.32 -24.96,-1.42 -29.58,11.66 -1.45,4.11 -2.14,9.95 -2.09,17.55l-21.43 -12.68c0.8,-4.34 1.85,-8.29 3.11,-11.87 7.38,-20.9 29.68,-24.79 66.84,-11.67 35.34,12.47 49.55,28.43 42.66,47.96l-28.25 80.05c-2.92,8.26 -1.76,13.29 3.41,15.12 1.61,0.56 4.33,0.47 8.12,-0.3l0.18 13.62zm-39.44 -97.81c-4.11,2.37 -8.46,4.05 -13.09,4.98 -11.64,2.37 -19.87,10.31 -24.68,23.94 -6.16,17.46 -5.94,27.34 0.71,29.69 9.7,3.42 17.61,-3.48 23.71,-20.77l13.35 -37.84zm175.92 27.65l-24.23 -1.75c5.15,-20.29 -1.48,-32.77 -19.89,-37.44 -11.31,-2.87 -18.15,0.47 -20.56,9.98 -1.77,6.98 6.02,16.97 23.4,29.98 26.54,20.03 37.4,39.64 32.53,58.84 -7.77,30.62 -30.54,41.12 -68.3,31.54 -39.99,-10.15 -56.08,-30.5 -48.31,-61.13l25.92 1.1c-1.07,2.91 -1.95,5.67 -2.62,8.28 -2,7.9 -0.53,15.6 4.36,23.1 4.96,7.47 11.76,12.32 20.48,14.53 11.52,2.93 18.56,-0.62 21.11,-10.67 1.71,-6.75 -5.7,-16.55 -22.25,-29.45 -24.87,-19.5 -34.88,-38.9 -29.96,-58.33 3.26,-12.81 11.28,-21.96 24.14,-27.45 12.81,-5.5 27.65,-6.08 44.49,-1.81 29.94,7.6 43.15,24.49 39.69,50.68zm121.03 18.61l-24.29 0.49c3.26,-20.68 -4.49,-32.5 -23.26,-35.45 -11.52,-1.82 -18.02,2.14 -19.55,11.83 -1.11,7.11 7.56,16.34 26.07,27.7 28.27,17.5 40.89,36.03 37.81,55.59 -4.92,31.21 -26.63,43.76 -65.11,37.7 -40.75,-6.42 -58.65,-25.21 -53.73,-56.42l25.91 -1.29c-0.8,2.99 -1.43,5.82 -1.85,8.48 -1.26,8.05 0.91,15.59 6.48,22.6 5.62,6.98 12.84,11.19 21.72,12.58 11.75,1.85 18.43,-2.32 20.04,-12.57 1.08,-6.88 -7.2,-15.95 -24.87,-27.27 -26.56,-17.13 -38.32,-35.53 -35.2,-55.32 2.06,-13.06 9.21,-22.91 21.5,-29.56 12.25,-6.65 26.98,-8.6 44.14,-5.9 30.51,4.81 45.23,20.41 44.19,46.81zm53.78 -85.56c15.24,1.49 22.25,8.31 21.07,20.48 -1.2,12.16 -9.4,17.5 -24.64,16.01 -15.23,-1.5 -22.25,-8.32 -21.06,-20.49 1.19,-12.16 9.4,-17.5 24.63,-16zm-43.95 190.75l13.6 -139.04c15.33,1.5 31.78,1.83 49.37,1.03l-13.98 142.8 -48.99 -4.79zm143.79 -133.11c44.99,1.8 66.49,27.12 64.54,75.97 -1.95,48.85 -25.41,72.37 -70.41,70.57 -45.09,-1.8 -66.68,-27.13 -64.73,-75.97 1.96,-48.85 25.5,-72.37 70.6,-70.57zm-0.63 12.21c-10.92,-0.44 -17.21,19.69 -18.84,60.4 -1.63,40.71 3.04,61.28 13.95,61.72 11.01,0.44 17.31,-19.7 18.93,-60.4 1.63,-40.71 -3.03,-61.28 -14.04,-61.72zm211.94 128.72l-49.19 2.12 -4.4 -102.56c-0.46,-10.56 -3.54,-15.73 -9.25,-15.49 -5.85,0.25 -10.69,4.63 -14.62,13.1 -3.92,8.51 -5.62,18.4 -5.14,29.71l3.29 76.53 -49.18 2.11 -6.02 -139.99c16.91,-0.73 33.25,-2.57 49.04,-5.57l1.12 26.17c11.51,-17.94 26.15,-27.29 43.83,-28.05 22.89,-0.99 34.87,10.45 35.89,34.35l4.63 107.57zm117.87 -64.65l20.46 3.46c2.03,32.31 -14.35,50.68 -49.11,55.11 -45.04,5.74 -70.52,-14.46 -76.4,-60.61 -2.86,-22.41 0.8,-41.5 10.95,-57.36 10.16,-15.86 24.56,-24.95 43.26,-27.34 39.06,-4.97 61.87,18.38 68.46,70.07l-71.29 9.09c4.65,36.46 15.98,53.55 33.95,51.26 16.78,-2.14 23.88,-13.55 21.25,-34.18 -0.35,-2.77 -0.84,-5.91 -1.53,-9.5zm-55.78 -23.07l29.22 -3.73c-4.12,-32.32 -10.89,-47.89 -20.35,-46.68 -8.6,1.09 -11.88,13.69 -9.92,37.79l1.05 12.62zm257.62 -108.91l-10.57 146.76 -33.27 8.3 -79.69 -124.25 50.95 -12.7 50.7 83.87 6.19 -98.06 15.69 -3.92zm9.1 -60.32c14.57,-4.67 23.72,-1.18 27.45,10.46 3.73,11.64 -1.7,19.79 -16.27,24.46 -14.57,4.67 -23.73,1.18 -27.45,-10.46 -3.73,-11.64 1.69,-19.79 16.27,-24.46zm35.24 192.56l-42.61 -133.05c14.66,-4.69 29.9,-10.92 45.73,-18.62l43.76 136.65 -46.88 15.02zm193.42 -70.65l-45.8 18.06 -37.65 -95.51c-3.87,-9.82 -8.48,-13.71 -13.79,-11.62 -5.45,2.15 -8.59,7.87 -9.54,17.16 -0.93,9.33 0.69,19.23 4.84,29.76l28.09 71.26 -45.8 18.05 -51.38 -130.36c15.74,-6.2 30.59,-13.28 44.53,-21.27l9.61 24.37c5.01,-20.71 15.79,-34.33 32.26,-40.82 21.31,-8.4 36.37,-1.51 45.14,20.75l39.49 100.17zm-43.57 -198.2c13.55,-7.11 23.17,-5.25 28.84,5.58 5.67,10.82 1.74,19.79 -11.82,26.89 -13.55,7.11 -23.17,5.25 -28.84,-5.58 -5.68,-10.82 -1.74,-19.78 11.82,-26.89zm67.85 183.62l-64.87 -123.73c13.64,-7.15 27.57,-15.9 41.84,-26.21l66.63 127.08 -43.6 22.86z"/>
  <g>
   <path id="1" fill="#E42D25" d="M402.16 1277.54l81.28 -171.28 71.75 34.06c40.77,19.34 53.19,45.85 37.23,79.48 -16.13,33.98 -46.84,40.22 -92.19,18.7l-16.7 -7.92 -33.15 69.84 -48.22 -22.88zm88.92 -62.88l10.87 5.15c17.58,8.34 32.05,0.53 43.4,-23.39 10.66,-22.47 7.2,-37.85 -10.38,-46.19l-10.86 -5.16 -33.03 69.59z"/>
   <path id="2" fill="#E42D25" d="M681.5 1386.04c-12.95,0.56 -24.84,-1.08 -35.62,-4.88 -15.95,-5.63 -23.96,-14.24 -24.09,-25.79 -11.48,7.86 -24.44,9.26 -38.95,4.14 -27.08,-9.56 -36.09,-27.25 -26.98,-53.07 6.92,-19.61 24.18,-29.04 51.71,-28.22 2.69,0.07 5.26,0.08 7.7,0.03l2.53 0.94 -2.53 -0.94c1.04,-0.02 2.05,-0.05 3.04,-0.1l-0.51 1.04 0.51 -1.04c2.28,-0.1 4.46,-0.26 6.51,-0.48l-1.23 3.68 0.01 0 1.23 -3.68c0.39,-0.04 0.78,-0.09 1.16,-0.13l0.78 4.09 1.46 -4.39 0.01 -0.01 -1.47 4.4 1.47 -4.4c4.81,-0.72 8.89,-1.81 12.23,-3.28l-2.1 4.32 -0.82 1.68 2.92 -6c0.04,-0.02 0.08,-0.03 0.12,-0.05l-1.85 5.56 1.95 6.26 1.37 2.51c-4.11,2.37 -8.46,4.05 -13.09,4.98 -11.64,2.37 -19.87,10.31 -24.68,23.94 -6.16,17.46 -5.94,27.34 0.71,29.69 9.7,3.42 17.61,-3.48 23.71,-20.77l13.35 -37.84 1.92 3.51 3.07 -1.65 2.75 1.03 6.19 -5.82 5.86 -3.15c-0.32,-0.48 -0.65,-0.97 -0.98,-1.45l-4.88 4.6 -8.94 4.79 -4.99 -1.86 -0.66 -0.24 -0.71 -2.27 -2.51 -4.6 -0.7 2.09 -0.65 -1.77 -2 4.1 1.67 0.62 0.98 -2.95 1.43 3.85 2.49 0.93 12.3 -18.43c-1.24,-1.11 -2.5,-2.26 -3.77,-3.44 0.41,-0.74 0.76,-1.51 1.05,-2.32 4.78,-13.54 0.64,-22.58 -12.45,-27.2 -15.08,-5.32 -24.96,-1.42 -29.58,11.66 -1.45,4.11 -2.14,9.95 -2.09,17.55l-21.43 -12.68c0.8,-4.34 1.85,-8.29 3.11,-11.87 7.38,-20.9 29.68,-24.79 66.84,-11.67 28.06,9.9 42.8,22.01 44.23,36.35 -0.23,-0.17 -0.46,-0.34 -0.68,-0.5l-13.09 0.05 0.11 0.1 13.76 1.72 -13.76 -1.72 10.11 8.82 -0.43 -0.08 2.72 2.28c-0.09,0.31 -0.2,0.62 -0.31,0.94l-12.67 35.9c-2.32,-2.78 -4.65,-5.65 -6.97,-8.6l0.38 9.81 3.61 1.98 2.85 -2.82 -2.85 2.82 1.55 0.85 -14.15 40.11c-2.92,8.26 -1.76,13.29 3.41,15.12 1.61,0.56 4.33,0.47 8.12,-0.3l0.18 13.62zm17.34 -111.09c-0.13,0.5 -0.28,1 -0.44,1.51l-2.34 -2.05 2.78 0.54zm-19.99 -15.55l0.76 -6c-0.19,-0.05 -0.35,-0.08 -0.46,-0.12 -0.9,-0.05 -2.38,-0.17 -2.72,-0.22l0.16 4.36 2.26 1.98zm5.94 5.18l2.74 -8.23c-0.13,-0.13 -0.25,-0.26 -0.36,-0.38l-5.89 5.55 3.51 3.06zm1.66 -9.82c-2.04,-0.36 -5.38,-1.02 -6.84,-1.36l-0.76 6 2.43 2.12 5.89 -5.55c-0.54,-0.59 -0.8,-1.01 -0.72,-1.21zm12.48 10.68c-5.04,-3.67 -9.43,-7.11 -11.4,-9.09l-2.74 8.23 1.05 0.91 13.09 -0.05zm-51.95 31.81l17.11 9.37c0.41,-0.35 0.83,-0.7 1.24,-1.04 -0.22,-3.05 -0.39,-6.03 -0.51,-8.87l-15.02 -5.59 -4.08 3.83 1.26 2.3zm17.84 -0.54c-0.15,-3.8 -0.21,-7.34 -0.14,-10.44 -0.96,-1.37 -1.9,-2.75 -2.83,-4.12l2.97 14.56zm-26.45 -18.44l0.37 1.19 -0.56 1.66 -0.63 -1.17 -0.72 1.49 1.54 -3.17zm19.12 34.08l-1.71 1.03 0.19 0.34c0.5,-0.45 1.01,-0.91 1.52,-1.37zm-13.51 -20.61l1.74 3.21 -1.74 -3.21zm-17.21 -10.11l0 0 -0.27 0.8 0 0.01 0.27 -0.81zm34.1 -0.93c-2.5,-3.74 -4.9,-7.46 -7.17,-11.14l7.17 11.14zm-37.27 0.65l2.9 1.08 -2.9 -1.08zm12.9 4.81l2.41 0.9 -2.41 -0.9z"/>
   <path id="3" fill="#E42D25" d="M790 1371.83l0.1 -1.44 -16.28 -4.33 0.66 1.64 15.52 4.13zm27.98 -55.95l-24.23 -1.75c5.15,-20.29 -1.48,-32.77 -19.89,-37.44 -11.31,-2.87 -18.15,0.47 -20.56,9.98 -1.4,5.51 3.17,12.9 13.71,22.17l-0.82 -0.11 -0.18 0.74 -1.62 -0.44 0.12 -0.53 -3.44 -0.48 -0.02 0.12 3.34 0.89 -2.3 9.61 -2.91 -2.69 -2.09 8.71 -0.23 -0.57 -0.4 -10.65 2.72 2.51 1.87 -7.81 -0.97 -0.25 -0.17 -0.03 -3.59 2.02 0.14 3.56 -2.45 -2.27 2.31 -1.29 -0.1 -2.53 -6.48 -0.89 0.49 1.22 3.78 3.49 -1.93 1.08 -1.85 -4.57 -1.14 -1.06 -4.47 3.69 -1.26 -2.89 2.71 -1.47 -3.56 -0.49 0.85 1.96 -23.17 12.54 3.6 7.57 -2.1 1.73 -2.52 1.41 0.39 -10.37 0.63 -0.34 -0.57 -1.18 -0.06 1.52 -6.09 3.3c-0.21,-0.42 -0.42,-0.83 -0.62,-1.24 1.85,-2.07 3.69,-4.17 5.48,-6.29l1.29 2.71 0.17 -4.44c3.09,-3.69 6.02,-7.37 8.61,-10.83l-15.63 18.68c-4.41,-9.24 -5.45,-18.48 -3.11,-27.73 3.26,-12.81 11.28,-21.96 24.14,-27.45 12.81,-5.5 27.65,-6.08 44.49,-1.81 29.94,7.6 43.15,24.49 39.69,50.68zm-50.28 -6.43c0.26,0.23 0.52,0.45 0.79,0.68l-0.89 -0.24 0.1 -0.44zm2.41 2.03c0.04,0.04 0.08,0.07 0.12,0.1l-4.48 6.04 -1.95 2.61 -0.54 0.74 0.54 -0.74 1.08 1 0.87 -3.61 4.48 -6.04c1.06,0.87 2.16,1.76 3.31,2.66l-8.57 7.08 -0.09 -0.09 -0.04 0.2 -2.11 1.74 10.81 -8.93c1.02,0.79 2.07,1.59 3.16,2.41l-4.26 6.02 0.71 -0.6 -2.82 4.2 10.46 9.68 4.92 -3.46 -6.32 -13.76 0 0 6.32 13.76 5.24 -3.67c0.18,0.18 0.36,0.36 0.55,0.54l-5.49 3.78 4.7 10.23 -1.02 0.81 -8.41 -7.78 -15.21 10.47 3.8 9.42 -4.87 0.95 -3.22 -7.42 -3.84 2.64 0.24 6.12 -2.35 0.47 -0.5 2.08 -0.89 -0.24 -0.68 -0.26 0.3 -1.24 -1.81 0.36 0.96 -4.03 -4.25 2.92 -0.03 0.12 -0.09 -0.03 -0.59 0.4 -0.07 0.1 -0.05 -0.01 -0.41 0.28c-0.08,-0.07 -0.15,-0.13 -0.23,-0.2l0.26 -0.19 -0.67 -0.17 0.67 0.17 0.75 -0.51 -1.19 -0.46 -0.44 0.61c-0.04,-0.03 -0.08,-0.07 -0.12,-0.1l0.4 -0.57 2.93 -4.1 5.34 -7.5 -5.34 7.5 3.77 -15.78 -8.95 7.48 -5.28 7.11 5.19 -7.04 -6.85 5.72c-1.61,-1.29 -3.15,-2.59 -4.63,-3.89l-0.04 -0.08 20.22 -16.71 -6.75 -15.56 5.32 -2.98 4.78 11.84 0.05 1.32 -0.76 3.2 -2.64 2.18 0.87 2 1.13 -1.54 0.64 -2.64 0.86 -0.71 0.05 1.26 1.2 -1.62 -0.21 -0.5 -1.04 0.86 -0.1 -2.49 0.18 -0.75 0.96 2.38 1.48 -1.22 1.24 -1.69 1.32 -5.49 1.41 1.31 2.51 -10.48 1.59 0.42 -1.77 7.39 4.28 -5.8zm6.59 5.17l0 0 -4.33 6.08 4.33 -6.08zm0.06 0.05c0.5,0.37 0.99,0.75 1.47,1.12l-5.08 4.25 3.61 -5.37zm15.92 13.86l0 0 -0.77 11.85 -1.2 0.96 1 2.17 -0.03 0.48 -1.99 -1.84 -13.63 10.89 15.22 -2.99 -0.14 2.25 -1.04 16.06 1.04 -16.06 -17.85 10.41 0.53 1.32 -1.92 -0.51 -1.72 1 4.3 1.15 -4.3 -1.15 -1.28 -0.34 -0.72 -1.66 -3 -0.79 1.97 -1.57 1.03 2.36 3.72 1 1.39 -0.81 -2.28 -5.64 -3.86 3.09 -2.15 -4.95 -6.82 1.34 0.13 3.35 6.87 1.83 -1.09 0.87 -5.77 -2.23 -0.01 -0.47 -2.98 -0.8 -0.02 0.1 3.01 1.17 0.04 1.01 -3.36 -0.9 0.31 -1.28 -0.87 -0.34 -0.69 -0.18 -0.33 1.38 -1.63 -0.43 0.33 -1.38 1.63 0.43 0.01 -0.08 -1.58 -0.61 0.07 -0.27 -0.51 0.1 0.44 0.17 -0.06 0.26 -1.09 -0.29 0.71 -0.14 -2.81 -1.09 -0.15 0.63 2.25 0.6 -2.27 0.45c0.21,0.19 0.42,0.39 0.63,0.58l2.4 0.64 -2.4 -0.64c9.65,8.92 13.81,15.98 12.48,21.22 -2.55,10.05 -9.59,13.6 -21.11,10.67 -8.72,-2.21 -15.52,-7.06 -20.48,-14.53 -4.89,-7.5 -6.36,-15.2 -4.36,-23.1 0.25,-0.96 0.52,-1.95 0.83,-2.96l-4.61 -1.22c-0.11,-0.52 -0.23,-1.03 -0.34,-1.56l0.79 0.21 4.49 1.5 0 0.01 -5.28 -1.72c-0.01,-0.02 -0.01,-0.04 -0.02,-0.06l0.81 0.27 4.58 1.22 0 0 -5.39 -1.49c-0.2,-0.91 -0.41,-1.84 -0.64,-2.79l-18.52 -0.79c-7.77,30.63 8.32,50.98 48.31,61.13 37.76,9.58 60.53,-0.92 68.3,-31.54 3.29,-12.98 -0.6,-26.14 -11.67,-39.5 0.12,0.54 0.24,1.08 0.36,1.62l-6.01 4.8 -0.2 3.13 0.4 0.87 -0.43 -0.39 -0.4 6.06 1.4 -21.52zm-77.94 16.28l3.8 0.16c-0.44,1.2 -0.85,2.37 -1.22,3.52l-2.58 -3.68zm33.83 13.43c-0.22,-0.21 -0.45,-0.41 -0.67,-0.61l0.28 -0.43 0.6 0.16 -0.21 0.88zm-1.82 -1.62c-0.5,-0.44 -1.02,-0.88 -1.54,-1.33l1.94 0.76 -0.4 0.57zm-13.49 -11.13c-5.7,-5.01 -10.42,-10.01 -14.16,-15.01l0.04 -1.15 -0.55 0.46c-0.15,-0.19 -0.29,-0.39 -0.43,-0.59l1.01 -0.56 -0.03 0.69 2.55 -2.1 2.31 -1.29 9.29 19.53 -0.03 0.02zm-9.26 -19.55l22.76 -12.74 -2.14 -4.92 -20.83 17.22 0.21 0.44zm30.06 31.42l1.22 -5.1 -2.07 1.43 0.85 3.67zm1.35 -5.65l1.96 -8.19 -2.68 4 0.66 -2.77 -5.37 7.57 -0.81 3.41 -0.46 0.68 0.36 -0.24 0.1 -0.44 5.52 -8.21 -1.35 5.65 2.07 -1.46zm1.96 -8.19l0.27 -1.11 0.02 0.68 -0.29 0.43zm0.27 -1.11l0.32 -1.34 -0.35 0.5 0.03 0.84zm0.38 -1.61l0.26 -1.07 -0.81 -1.88 0.13 3.55 0.42 -0.6zm0.26 -1.07l2.13 -8.89 1.06 2.62 -0.91 3.78 1.56 -2.17 -0.65 -1.61 1.1 -4.57 6.71 -5.62 0.75 0.7 2.34 -3.27 -3.09 2.57 -4.31 -3.98 -0.13 0.11 -2.27 9.49 -2.11 1.76 2.27 -9.51 0.53 -2.2 -2.55 3.43 -3.11 19.03 -2.18 3.05 1.75 -7.28 -1.2 -2.77 -2.12 1.77 1.03 -4.28 1.09 2.51 1.32 -1.11 0.11 2.89 -0.23 0.99 0.3 0.68 -0.07 -1.67 0.89 -3.73 -1 0.84 -0.23 -6.01 1.24 -1.67 1.02 2.54 -1.03 4.3 2.07 -1.72 0.05 0.11 0.05 -0.19 -0.1 0.08 -1.04 -2.58 1.26 -5.23 -0.72 0.59 0.85 -1.14 -0.13 0.55 2.15 -1.78 -4.45 18.59zm5.05 -21.09l0.17 -0.72 0.21 0.2 2.12 -2.87 -2.5 3.39zm40.7 51.7l-9.26 -20.16 -0.34 -0.75 -3.15 0.62 -0.14 2.25 3.63 -2.12 9.26 20.16zm-9.6 -20.91l-2.32 -5.05 4.87 4.51 -0.1 0.06 -2.45 0.48zm-45.08 -45.06l-0.26 0.22 -0.32 -0.3 -2.7 -0.37 3.28 0.45zm23.09 16.27l-2.38 3.35 0.27 0.25 -7.86 11.7 3.41 8.43 14.91 -10.45 -8.35 -13.28zm-2.38 3.35l-7.91 11.16 0.32 0.79 -2.47 3.68 -0.63 2.62 -0.45 -1.03 -1.26 1.88 0.21 5.41 -0.43 1.79 0.49 -0.34 -0.06 -1.45 1.5 -6.26 2.23 5.13 4.28 -3 4.18 -20.38zm-7.91 11.16l-1.64 2.32 -0.51 2.15 -1.08 1.59 -0.4 -0.93 -0.56 0.79 4.19 -5.92zm-1.64 2.32l-1.99 2.81 1.99 -2.81zm-2.9 4.1l-2.26 3.18 2.26 -3.18zm-7.63 10.75l-2.67 3.79 1.19 0.46 0.21 -0.16 1.27 -4.09zm50.65 -5.56l-3.65 2.13 0.04 0.03 -0.14 0.03 -2.11 1.23 5.86 -3.42zm-42.61 -5.96l0.45 -0.62 -0.19 -0.45 -0.26 1.07zm0.45 -0.62l2.09 -2.94 -2.09 2.94zm3.65 -5.11l7.91 -11.1 -7.91 11.1zm40.13 36.53l-12.15 -3.24 12.15 3.24zm-47.37 -39.71l-0.46 -1.05 -9.52 12.81 9.98 -11.76zm-35.09 -19.58c-0.48,0.58 -0.97,1.16 -1.46,1.73l1.46 -1.73zm33.63 47.75l1.58 0.42 -1.58 -0.42zm4.94 1.32l5.45 1.45 2.77 0.74 2.32 0.61 -2.32 -0.61 -2.49 -0.97 -0.28 0.23 -5.45 -1.45zm31.64 8.42l10.76 2.87c0.5,-0.36 1,-0.72 1.49,-1.07 0.6,-0.43 1.19,-0.85 1.78,-1.26 1.11,-0.78 2.19,-1.53 3.21,-2.22 -1.53,-4.07 -3.08,-8.84 -4.57,-13.97l-5.65 -5.23 3.98 -0.78c-0.12,-0.46 -0.25,-0.92 -0.37,-1.38 -0.96,-3.68 -1.87,-7.44 -2.71,-11.18l-7.92 34.22zm12.67 -15.65c-0.57,-1.96 -1.13,-3.97 -1.67,-6.01l1.67 6.01zm-26.61 -1.11l-6.19 1.22 1.14 2.81 5.05 -4.03zm-20.23 3.98l-1.77 0.34 1.77 -0.34zm30.18 -25.91l-4.73 3.26 4.73 -3.26zm-19.94 13.73l-4.29 2.95 4.29 -2.95zm-8.13 5.59l-0.64 0.44 -2.02 1.39 0.55 4.76 1.47 -6.15 0.64 -0.44zm-8.98 6.18l-0.12 0.09 0.12 -0.09zm-0.71 0.49l-0.12 0.09 0.12 -0.09zm0.82 -0.93l4.27 -3 -4.27 3zm6.34 -4.46l2.03 -1.42 -2.03 1.42zm2.52 -1.76l3.67 -2.58 -3.67 2.58zm-2.46 -20.52l-0.59 2.46 0.59 -2.46zm-10.66 14.29l9.57 -12.96 -9.57 12.96zm10.7 -14.5l1.55 -2.09 -1.55 2.09zm2.75 -3.71l1.27 -1.72 -1.27 1.72zm2.51 -3.41l2.56 -3.46 0.38 -0.52 -2.94 3.98zm-0.91 1.41l-1.56 2.1 1.56 -2.1zm-2.8 3.77l-1.59 2.15 -1.05 1.41 2.64 -3.56zm9.13 -20.58l-1.68 -0.23 1.68 0.23zm-5.12 -0.71l-0.99 -0.13 0.99 0.13zm-1.16 -0.16l-3.69 -0.51 3.69 0.51zm-10.17 -1.4l-0.39 -0.06 -0.58 -0.08 0.97 0.14zm-7.23 -1l-14.11 -1.95 14.11 1.95z"/>
   <path id="4" fill="#E42D25" d="M915.81 1392.05l-0.01 -0.67 -16.37 -2.66 0.37 0.72 16.01 2.61zm23.2 -57.56l-24.14 0.49c-0.03,-0.14 -0.06,-0.27 -0.09,-0.41 3.09,-20.43 -4.68,-32.11 -23.32,-35.04 -11.52,-1.82 -18.02,2.14 -19.55,11.83 -0.89,5.68 4.45,12.7 16.05,21.08l-1.3 -0.06 -0.02 0.13 -1.05 -0.17 -0.29 -0.01 -1.49 10.22 -3.17 -2.43 -1.36 9.27 -0.65 -1.26 -1.34 -10.58 3.35 2.57 1.16 -7.93 -1.5 -0.06 -3.4 2.35 0.39 3.07 -2.29 -1.75 1.9 -1.32 -0.32 -2.5 -6.35 -0.26 0.35 0.68 4.42 3.4 -1.98 1.37 -2.44 -4.77 -0.92 -0.7 -0.23 -0.01 -3.8 3.76 -1.52 -2.78 1.67 -1.13 -2.34 -0.09 0.67 1.22 -22.07 14.84 4.21 7.09 -3.81 3.77 -0.31 0.22 -0.5 -10.81 0.41 -0.27 -0.45 -0.76 0.04 1.03 -5.98 4.02c-0.16,-0.25 -0.31,-0.5 -0.46,-0.74 1.65,-2.26 3.29,-4.55 4.89,-6.85l1.51 2.54 -0.21 -4.44c2.68,-3.91 5.2,-7.8 7.43,-11.45l-13.68 20.1c-5.47,-8.95 -7.46,-18.22 -5.95,-27.82 2.06,-13.06 9.21,-22.91 21.5,-29.56 12.25,-6.65 26.98,-8.6 44.14,-5.9 30.51,4.81 45.23,20.41 44.19,46.81zm-50.76 -1.85c0.08,0.06 0.16,0.12 0.24,0.17l-0.26 -0.04 0.02 -0.13zm2.72 1.9c0.07,0.05 0.15,0.1 0.22,0.15l-4.25 6.95 -1.38 2.25 -0.76 1.24 0.76 -1.24 0.94 0.73 -0.1 0.7 0.44 -0.44 -0.34 -0.26 0.44 -2.98 4.25 -6.95c1.13,0.76 2.3,1.54 3.52,2.32l-7.87 7.87 4.37 3.35 -6.14 6.2 1.33 -9.11 -1.91 1.9 12.95 -8.49c0.18,0.11 0.36,0.22 0.54,0.33l-3.35 5.71 -3.42 3.46 0.96 0.73 -7 11.93 -0.81 -1.59 0.71 -4.87 -1.91 1.93 -0.07 0.47 -0.13 -0.27 -1.41 1.43 -0.77 5.25 1.08 1.97 -0.25 1.76 0.25 -1.76 1.23 -8.38 1.27 2.47 -0.58 3.97 1.39 -2.38 23.16 -6.91 -4.56 3.88 -11.15 -8.55 3.1 -5.65 -1.03 1.05 3.29 -5.65c0.06,0.04 0.13,0.08 0.2,0.12l-2.46 4.48 3.68 -3.71c0.46,0.29 0.91,0.58 1.36,0.87l7.57 13.16 4.9 -4.16c0.2,0.16 0.39,0.32 0.58,0.48l-5.13 4.29 5.6 9.74 -0.92 0.89 -9.07 -6.96 -14.33 11.97 4.43 8.65 -4.36 1.32 -3.75 -6.89 -4.02 3.36 0.71 5.66 -2.07 0.63 -0.33 2.23 -1.56 -0.43 0.19 -1.29 -1.44 0.43 0.58 -3.96 -4.01 3.35 -0.02 0.15 -0.12 -0.03 -0.45 0.37 -0.37 0.68 -0.27 -0.04c-0.02,-0.02 -0.05,-0.03 -0.07,-0.05l0.71 -0.59 -0.71 0.59c-0.07,-0.06 -0.15,-0.11 -0.23,-0.17l1.04 -0.89 -1.39 -0.39 -0.42 0.72c-0.05,-0.03 -0.1,-0.07 -0.14,-0.1l0.39 -0.67 2.81 -4.79 6.77 -12.87 0.38 0.69 -0.63 1.07 -0.48 0.82 -0.47 -3.7 -0.87 5.99 -4.7 8 2.32 -15.91 -8.01 8.1 -5.02 8.19 4.86 -8.03 -6.73 6.8c-1.64,-1.09 -3.22,-2.18 -4.75,-3.29l18.68 -18.67 -8.1 -14.85 4.68 -3.25 5.61 10.96 0.39 3.05 -0.26 1.77 -2.32 2.32 0.94 1.72 1.04 -1.73 0.34 -2.31 0.43 -0.43 0.15 1.22 1.18 -1.94 -0.21 -0.4 -1.12 1.12 -0.17 -1.34 0.26 -1.79 1.03 2.01 1.13 -1.12 1.63 -2.7 0.74 -5.03 1.23 0.95 1.6 -10.99 1.59 0.26 -1.21 8.28 3.95 -6.51zm24.06 16.78l0 0 0.23 12.07 -0.98 0.94 1.03 1.79 0.02 0.61 -1.97 -1.51 -11.92 11.53 14 -4.22 0.05 3 0.31 15.85 -0.31 -15.85 -16.68 11.98 0.62 1.21 -1.88 -0.31 -0.76 0.54 3.01 0.49 -3.01 -0.49 -2.17 -0.35 -0.4 -0.74 -3.66 -0.59 -0.58 0.56 -5.6 -1.57 6.18 1.01 2.18 -2.11 1.48 2.7 3.33 0.55 1.26 -0.9 -2.81 -5.5 -3.26 3.15 -2.71 -4.96 -7.06 2.13 0.47 3.67 0.94 0.26 -0.93 -0.15 -0.01 -0.11 -2.87 -0.81 -0.06 0.44 2.94 0.48 0.09 0.68 -3.13 -0.51 0.1 -0.65 -1.59 -0.26 -0.1 0.65 -1.33 -0.22 0.09 -0.65 1.34 0.22 0.09 -0.61 -1.32 -0.37 0.07 -0.49 -0.86 0.27 0.79 0.22 -0.11 0.76 -2.56 -0.42 1.88 -0.56 -2.59 -0.73 -0.17 1.15 0.88 0.14 -0.95 0.29 -0.01 0.11c0.06,0.05 0.12,0.1 0.18,0.14l3.25 0.53 -3.25 -0.53c10.87,8.21 15.86,15.02 15.01,20.46 -1.61,10.25 -8.29,14.42 -20.04,12.57 -8.88,-1.39 -16.1,-5.6 -21.72,-12.58 -5.57,-7.01 -7.74,-14.55 -6.48,-22.6 0.17,-1.03 0.36,-2.09 0.58,-3.17l-4.93 -0.81c-0.07,-0.23 -0.15,-0.46 -0.22,-0.7l5.29 0.86 -5.29 -0.86c-0.08,-0.24 -0.16,-0.49 -0.24,-0.73l5.6 1.29 -5.6 -1.29c-0.29,-0.88 -0.58,-1.78 -0.89,-2.69l-18.36 0.91c-4.92,31.21 12.98,50 53.73,56.42 38.48,6.06 60.19,-6.49 65.11,-37.7 2.06,-13.08 -2.9,-25.7 -14.86,-37.85 0.09,0.28 0.18,0.56 0.27,0.84l-5.94 5.75 0.05 2.73 0.61 1.07 -0.59 -0.46 0.11 5.8 -0.41 -21.21zm-76.72 23.55l4.55 -0.23c-0.39,1.49 -0.75,2.94 -1.06,4.35l-3.49 -4.12zm35.64 10.18c-0.21,-0.16 -0.43,-0.32 -0.64,-0.48l0.06 -0.11 0.77 0.13 -0.07 0.43 -0.12 0.03zm-2.06 -1.51c-0.59,-0.43 -1.2,-0.85 -1.82,-1.28l2.21 0.61 -0.39 0.67zm-14.18 -9.64c-6.14,-4.45 -11.31,-8.98 -15.5,-13.6l-0.08 -1.62 -0.73 0.72c-0.05,-0.07 -0.11,-0.13 -0.16,-0.19l0.89 -0.62 0 0.09 0.31 -0.31 4.28 -2.97 10.99 18.5zm-10.99 -18.5l21.62 -14.98 -2.71 -4.97 -19.38 19.15 0.47 0.8zm32.48 28.07l0.7 -4.84 -1.56 1.31 0.86 3.53zm0.78 -5.38l1.14 -7.77 -1.87 3.4 0.49 -3.33 -4.71 8.09 -0.59 4.02 -0.31 0.56 0.26 -0.22 0.05 -0.34 4.81 -8.78 -0.83 5.7 1.56 -1.33zm1.14 -7.77l0.18 -1.21 0.09 0.72 -0.27 0.49zm0.18 -1.21l0.27 -1.86 -0.42 0.72 0.15 1.14zm1.86 -12.75l1.33 -9.14 -1.6 1.6 0.11 -0.76 -1.03 1.68 0.92 -0.92 -0.86 5.93 0.93 1.81 0.2 -0.2zm1.33 -9.14l0.31 -2.09 -1.8 2.93 1.49 -0.84zm0.39 -2.62l0.16 -1.1 0.34 0.26 1.64 -2.71 -2.14 3.55zm45.22 47.24l-10.91 -18.97 -0.72 -1.26 -3.03 0.92 0.05 3 3.7 -2.66 10.91 18.97zm-11.63 -20.23l-2.55 -4.42 4.86 3.72 -2.31 0.7zm-23.78 -26.9l-2.49 4.28 -6.98 11.99 0.49 0.96 -2.37 4.32 -0.19 1.31 -0.26 -0.48 -1.5 2.74 0.66 5.24 -0.21 1.44 0.36 -0.3 -0.15 -1.14 1.1 -7.5 2.91 5.35 3.68 -3.12 14.03 -11.94 -14.03 11.94 -4.03 -7.86 6.91 -12.63 -0.42 -0.32 2.49 -4.28zm-9.47 16.27l-1.48 2.53 -0.4 2.75 -0.45 0.83 -0.6 -1.09 -0.72 1.25 3.65 -6.27zm-1.48 2.53l-1.45 2.49 1.45 -2.49zm-2.59 4.46l-1.41 2.42 1.41 -2.42zm-6.12 10.51l-2.58 4.44 1.39 0.39 0.29 -0.25 0.9 -4.58zm49.99 -9.79l-2.27 1.63 -1.97 0.59 0.55 0.43 -2.14 1.53 5.83 -4.18zm-2.27 1.63l-1.42 1.02 6.65 5.09c-0.89,-2.23 -1.78,-4.54 -2.65,-6.89l-2.58 0.78zm-42.96 -0.24l1.34 -2.29 -1.34 2.29zm2.45 -4.18l1.54 -2.63 -1.54 2.63zm9.93 -16.94l2.46 -4.19 -2.46 4.19zm36.07 44.46l-12.44 -2.04 12.44 2.04zm-47.46 -30.18l-0.3 -0.56 0.18 1.41 0.12 -0.85zm-0.3 -0.56l-1.27 -2.33 0.86 -0.87 0.41 3.2zm-1.27 -2.33l-1.21 -2.21 -0.59 4.03 1.8 -1.82zm-1.21 -2.21l-0.55 -1.02 -8.05 13.15 8.6 -12.13zm-36.62 -15.83c-0.43,0.63 -0.86,1.27 -1.3,1.9l1.3 -1.9zm40.17 15.68l0.48 -3.24 -1.43 -2.77 -1.22 2 0.69 5.5 1.48 -1.49zm-2.73 28.03l1.59 0.26 -1.59 -0.26zm4.72 0.77l6.43 1.05 0.13 0.02 4.52 0.74 -4.52 -0.74 -0.12 -0.03 -0.01 0.01 -6.43 -1.05zm32.27 5.26l11.78 1.93c0.22,-0.19 0.44,-0.38 0.65,-0.56 0.63,-0.54 1.25,-1.07 1.86,-1.58 1.19,-1 2.33,-1.95 3.4,-2.81 -1.79,-3.66 -3.67,-7.96 -5.52,-12.6l-12.17 15.62zm9.52 -22.51c-0.1,-0.28 -0.21,-0.57 -0.31,-0.85 -1.32,-3.62 -2.61,-7.34 -3.82,-11.05l4.13 11.9zm-23.89 7.21l-7.05 2.13 1.61 3.13 5.44 -5.26zm-20.54 6.21l-1.7 0.51 1.7 -0.51zm27.78 -28.37l-4.39 3.67 4.39 -3.67zm-18.72 15.64l-3.68 3.08 3.68 -3.08zm-7.7 6.44l-0.5 0.41 -1.86 1.55 1 4.33 0.86 -5.88 0.5 -0.41zm-7.93 6.62l-0.14 0.12 0.14 -0.12zm0.06 -0.45l4.03 -3.42 -4.03 3.42zm5.59 -4.75l1.86 -1.58 -1.86 1.58zm2.22 -1.88l3.86 -3.29 -3.86 3.29zm-3.83 -20.59l-0.37 2.52 0.37 -2.52zm-9.13 14.81l8.14 -13.44 -8.14 13.44zm9.18 -15.17l0.92 -1.52 -0.92 1.52zm2.1 -3.46l0.92 -1.52 -0.92 1.52zm2.55 -4.22l1.81 -2.98 0.5 -0.84 -2.31 3.82zm-1.1 2.16l-1.37 2.24 1.37 -2.24zm-2.59 4.24l-1.01 1.64 -0.92 1.5 1.93 -3.14zm7.28 -21.6l-1.07 -0.04 1.07 0.04zm-1.36 -0.05l-3.5 -0.14 3.5 0.14zm-5 -0.2l-3.72 -0.15 3.72 0.15zm-10.07 -0.41l-0.57 -0.02 0.57 0.02zm-0.8 -0.03l-3.65 -0.15 3.65 0.15zm-5.99 -0.24l-14.63 -0.59 14.63 0.59z"/>
   <path id="5" fill="#E42D25" d="M992.79 1248.93c15.24,1.49 22.25,8.31 21.07,20.48 -1.2,12.16 -9.4,17.5 -24.64,16.01 -15.23,-1.5 -22.25,-8.32 -21.06,-20.49 1.19,-12.16 9.4,-17.5 24.63,-16zm-43.95 190.75l13.6 -139.04c15.33,1.5 31.78,1.83 49.37,1.03l-13.98 142.8 -48.99 -4.79z"/>
   <path id="6" fill="#E42D25" d="M1092.63 1306.57c44.99,1.8 66.49,27.12 64.54,75.97 -1.95,48.85 -25.41,72.37 -70.41,70.57 -45.09,-1.8 -66.68,-27.13 -64.73,-75.97 1.96,-48.85 25.5,-72.37 70.6,-70.57zm-0.63 12.21c-7.73,-0.31 -13.15,9.7 -16.23,30.04 -1.84,1.53 -3.74,3.07 -5.69,4.6l4.51 4.78c-0.34,3.31 -0.63,6.84 -0.88,10.58l-9.95 -10.52c-8.93,6.66 -18.62,13.18 -28.18,18.97 0.2,0.15 0.41,0.29 0.61,0.43l37.13 -2.08c-0.06,1.17 -0.11,2.37 -0.16,3.58l-36.97 -1.5c0.01,0.01 0.02,0.02 0.03,0.02l36.94 1.49c0,0 0,0.01 0,0.01l0 0 -36.93 -1.49c0.01,0.01 0.02,0.01 0.03,0.02l36.9 1.49c-0.14,3.6 -0.24,7.04 -0.28,10.33l-10.09 9.06c2.06,1.78 4.07,3.56 6.02,5.35l4.1 -3.69c0.07,2.74 0.18,5.34 0.33,7.8 -1.44,-1.36 -2.92,-2.74 -4.43,-4.11l4.45 4.5c1.35,21.32 5.97,32.14 13.85,32.46 7.72,0.31 13.12,-9.5 16.22,-29.42l12.1 -10.13c-2.15,1.6 -4.26,3.22 -6.32,4.83 -1.94,1.52 -3.83,3.05 -5.66,4.57 0.43,-2.9 0.82,-6 1.16,-9.32l4.5 4.75 -4.5 -4.75c0.35,-3.32 0.64,-6.84 0.89,-10.58l9.93 10.5c8.82,-6.57 18.35,-12.99 27.79,-18.71 -0.31,-0.22 -0.61,-0.44 -0.92,-0.66l-36.44 2.72c0.06,-1.37 0.13,-2.76 0.18,-4.18l36.26 1.46c-0.01,0 -0.01,-0.01 -0.02,-0.01l-36.24 -1.46c0,-0.01 0,-0.01 0,-0.01l36.22 1.45c0,0 -0.01,-0.01 -0.02,-0.01l-36.2 -1.46c0.15,-3.58 0.24,-7.01 0.29,-10.28l9.9 -8.9c-2.05,-1.78 -4.05,-3.58 -6,-5.36l-3.94 3.54c-0.06,-2.63 -0.16,-5.13 -0.3,-7.51 1.38,1.32 2.79,2.64 4.24,3.97l-4.27 -4.35c-1.32,-21.55 -5.97,-32.49 -13.96,-32.81zm50.28 63.19c0,-0.01 -0.01,-0.01 -0.02,-0.02l0.02 0.02zm-0.04 -0.03c-8.88,-6.4 -17.8,-13.47 -26.01,-20.64l26.01 20.64zm-72.16 -28.52c-2.06,1.62 -4.17,3.24 -6.32,4.84l6.32 -4.84zm-33.86 24.26c0,0 0.01,0.01 0.01,0.01l-0.01 -0.01zm0.04 0.03c9.05,6.45 18.15,13.62 26.53,20.88l-26.53 -20.88z"/>
   <path id="7" fill="#E42D25" d="M1303.94 1447.5l-49.19 2.12 -4.4 -102.56c-0.46,-10.56 -3.54,-15.73 -9.25,-15.49 -5.85,0.25 -10.69,4.63 -14.62,13.1 -3.92,8.51 -5.62,18.4 -5.14,29.71l3.29 76.53 -49.18 2.11 -6.02 -139.99c16.91,-0.73 33.25,-2.57 49.04,-5.57l1.12 26.17c11.51,-17.94 26.15,-27.29 43.83,-28.05 22.89,-0.99 34.87,10.45 35.89,34.35l4.63 107.57z"/>
   <path id="8" fill="#E42D25" d="M1421.81 1382.85l20.46 3.46c2.03,32.31 -14.35,50.68 -49.11,55.11 -45.04,5.74 -70.52,-14.46 -76.4,-60.61 -2.86,-22.41 0.8,-41.5 10.95,-57.36 10.16,-15.86 24.56,-24.95 43.26,-27.34 39.06,-4.97 61.87,18.38 68.46,70.07l-71.29 9.09c4.65,36.46 15.98,53.55 33.95,51.26 16.78,-2.14 23.88,-13.55 21.25,-34.18 -0.35,-2.77 -0.84,-5.91 -1.53,-9.5zm-55.78 -23.07l29.22 -3.73c-4.12,-32.32 -10.89,-47.89 -20.35,-46.68 -8.6,1.09 -11.88,13.69 -9.92,37.79l1.05 12.62zm-34.42 4.81c-0.98,2.56 -2,5.12 -3.04,7.63l7.8 -8.27 -4.76 0.64zm22.41 27.41l15.72 -1.01 -0.97 -8.16 0.3 0.19 -0.27 -2.2 -0.27 0 0.24 2.01 -3.07 -2.01 -16.95 0 -5.05 5.22c3.49,1.94 6.94,3.93 10.32,5.96zm15.72 -1.01l0.27 -0.02 -0.94 -7.95 0.67 7.97zm-1.21 -10.17l-2.83 0 2.83 0zm-19.78 0l-14.78 0c3.26,1.68 6.51,3.42 9.73,5.22l5.05 -5.22z"/>
   <path id="9" fill="#E42D25" d="M1623.65 1250.87l-10.57 146.76 -33.27 8.3 -79.69 -124.25 50.95 -12.7 50.7 83.87 6.19 -98.06 15.69 -3.92z"/>
   <path id="10" fill="#E42D25" d="M1632.75 1190.55c14.57,-4.67 23.72,-1.18 27.45,10.46 3.73,11.64 -1.7,19.79 -16.27,24.46 -14.57,4.67 -23.73,1.18 -27.45,-10.46 -3.73,-11.64 1.69,-19.79 16.27,-24.46zm35.24 192.56l-42.61 -133.05c14.66,-4.69 29.9,-10.92 45.73,-18.62l43.76 136.65 -46.88 15.02z"/>
   <path id="11" fill="#E42D25" d="M1861.41 1312.46l-45.8 18.06 -37.65 -95.51c-3.87,-9.82 -8.48,-13.71 -13.79,-11.62 -5.45,2.15 -8.59,7.87 -9.54,17.16 -0.93,9.33 0.69,19.23 4.84,29.76l28.09 71.26 -45.8 18.05 -51.38 -130.36c15.74,-6.2 30.59,-13.28 44.53,-21.27l9.61 24.37c5.01,-20.71 15.79,-34.33 32.26,-40.82 21.31,-8.4 36.37,-1.51 45.14,20.75l39.49 100.17z"/>
   <path id="12" fill="#E42D25" d="M1817.84 1114.26c13.55,-7.11 23.17,-5.25 28.84,5.58 5.67,10.82 1.74,19.79 -11.82,26.89 -13.55,7.11 -23.17,5.25 -28.84,-5.58 -5.68,-10.82 -1.74,-19.78 11.82,-26.89zm67.85 183.62l-64.87 -123.73c13.64,-7.15 27.57,-15.9 41.84,-26.21l66.63 127.08 -43.6 22.86z"/>
  </g>
 </g>
</svg>
